<svg xmlns="http://www.w3.org/2000/svg" viewBox="0 0 456.88 125.65"><defs><style>.cls-1{fill:#2fa9d8;}</style></defs><title>대지 2</title><g id="Layer_1" data-name="Layer 1"><path class="cls-1" d="M265.75,60.37a87.32,87.32,0,0,1-.66,12.9c-.73,4.32-1.77,6.84-4.57,9.48-4.44,4.25-10.24,5.73-16.62,5.73S231.73,87,227.29,82.75c-2.8-2.64-3.83-5.16-4.58-9.48a84.26,84.26,0,0,1-.67-12.9,85.63,85.63,0,0,1,.67-13c.75-4.09,1.78-6.65,4.58-9.29,4.44-4.26,10.2-5.75,16.61-5.75s12.18,1.49,16.62,5.75c2.8,2.64,3.84,5.2,4.57,9.29a88.73,88.73,0,0,1,.66,13M243.87,43.78c-4.58,0-8.75,2.62-8.75,9V67.52c0,7.71,5.42,9.16,8.75,9.16s8.81-1.45,8.81-9.16V52.76c0-6.36-4.2-9-8.81-9"/><polygon class="cls-1" points="223.49 88 208.64 88 195.46 64.96 189.07 72.48 189.07 88 176.29 88 176.29 32.75 189.07 32.75 189.07 54.44 207.36 32.75 222.4 32.75 203.94 54.94 223.49 88"/><path class="cls-1" d="M317.16,88H303.22L295,67.45h-7.87V88H274.25V32.54h25c7,0,16.83,4.36,16.83,17.14,0,7.3-3.47,11.93-9.11,15.67ZM303.11,50.29c0-5.43-4.21-6.17-6.11-6.17h-9.88V56.34H297c1.9,0,6.11-.64,6.11-6.05"/><polygon class="cls-1" points="361.56 88 323.01 88 323.01 32.75 361.86 32.75 361.86 43.99 335.82 43.99 335.82 54.45 358.08 54.45 358.08 65.79 335.82 65.79 335.82 76.37 361.56 76.37 361.56 88"/><path class="cls-1" d="M413.82,88h-13.5l-3.66-11H379.11L375.7,88H362.06l19.25-55.25h13.4ZM393.56,66.5,388,47.2,382.2,66.54Z"/><path class="cls-1" d="M65.06,69.08c0,7.09-1.9,11.3-6.42,14.87-4,3.22-8.24,4.17-14.15,4.17-8.92,0-14.92-3.28-17.26-5.5l6-9.39c2.69,2.63,7,3.64,10,3.64,5,0,8.86-2.46,8.86-8.1v-36h13Z"/><path class="cls-1" d="M117.33,60.37a97.1,97.1,0,0,1-.61,12.9c-.76,4.32-1.84,6.84-4.63,9.48-4.45,4.25-10.23,5.73-16.63,5.73S83.3,87,78.86,82.75c-2.79-2.64-3.83-5.16-4.64-9.48a95.8,95.8,0,0,1-.6-12.9,97.35,97.35,0,0,1,.6-13c.81-4.09,1.85-6.65,4.64-9.29,4.44-4.26,10.22-5.75,16.6-5.75s12.18,1.49,16.63,5.75c2.79,2.64,3.87,5.2,4.63,9.29a98.66,98.66,0,0,1,.61,13M95.46,43.78c-4.61,0-8.79,2.62-8.79,9V67.52c0,7.71,5.42,9.16,8.79,9.16s8.76-1.45,8.76-9.16V52.76c0-6.36-4.16-9-8.76-9"/><path class="cls-1" d="M168.81,71.75c0,5.12-1.85,9.55-5.19,12.42S156.39,88,151.12,88H126.07V32.75h23.84c5.85,0,10,.58,13.2,3.46s4.66,6.57,4.66,11.44a12.58,12.58,0,0,1-6.65,11,15.05,15.05,0,0,1,7.69,13.06m-14-22.93c0-2.85-2.17-4.66-5.6-4.66H138.68v9.78h10.06c4.34,0,6-2.07,6-5.12m.46,21.88c0-3.82-2.37-5.8-5.75-5.8H138.68V76.37h10.59c4.17,0,6-2.36,6-5.67"/></g></svg>