<svg xmlns="http://www.w3.org/2000/svg" viewBox="0 0 1007.37 431.16"><defs><style>.cls-1{fill:#4876ef;}.cls-2{fill:#fff;}</style></defs><title>대지 2</title><g id="color"><rect class="cls-1" x="74.08" y="70.45" width="843" height="269.5"/><path class="cls-2" d="M257.64,184.44a9.94,9.94,0,0,0,3.9,8.3c3.11,2.27,7.65,2.63,12.79,1a63,63,0,0,1,18.35-3.25c13,0,18.55,4.59,18.55,15.34v5.82l-.69-.16c-7-1.66-12.57-2.83-20.89-2.83-35.68,0-38.45,23.2-38.45,30.31,0,15.84,10.35,32.76,39.39,32.76,22.68,0,36.08-7.89,39.64-10.32,3.26-2.17,4.3-4.22,4.3-8.43v-46.4c0-25.13-13.89-37.87-41.29-37.87-11.45,0-22.34,2.43-27.61,4.68S257.64,179.3,257.64,184.44Zm53.59,61.66-.26.17c-2,1.24-7.89,5-18.67,5-11.19,0-17.61-4.83-17.61-13.25,0-7.7,6.85-12.87,17-12.87a63,63,0,0,1,19.09,3.05l.41.12Z"/><path class="cls-2" d="M770.56,168.72c-24.07,0-37.15,8.59-39.58,10.31-3.22,2.27-4.31,4.49-4.31,8.82v70.82a12.49,12.49,0,0,0,12.13,12.51c6.91,0,12.12-5.38,12.12-12.51V197.2l.26-.17c3.54-2.23,10.71-4.63,18.63-4.63,9.15,0,18.93,4.82,18.93,18.36v47.91c0,6.78,5.55,12.51,12.12,12.51,6.91,0,12.13-5.38,12.13-12.51v-49C813,182.86,798.32,168.72,770.56,168.72Z"/><path class="cls-2" d="M592.85,179.39l-.4.32-.35-.38c-6.87-7.24-15.53-10.61-27.24-10.61-12.6,0-25.36,4-34.12,10.67-3.52,2.54-4.7,4.77-4.7,8.84v70.44c0,6.78,5.55,12.51,12.12,12.51,6.91,0,12.13-5.38,12.13-12.51V197.19l.62-.39A26.47,26.47,0,0,1,566,192.4c10.55,0,15.9,5.92,15.9,17.6v48.67c0,6.78,5.55,12.51,12.12,12.51a12.2,12.2,0,0,0,12.13-12.51V197.19l.62-.39a26.47,26.47,0,0,1,15.09-4.4c10.4,0,15.9,6.15,15.9,17.79v48.48c0,6.78,5.47,12.51,11.94,12.51A12.28,12.28,0,0,0,662,258.67v-49c0-27.53-12.7-40.91-38.82-40.91A48.57,48.57,0,0,0,592.85,179.39Z"/><path class="cls-2" d="M428.94,184.44a9.94,9.94,0,0,0,3.9,8.3c3.11,2.27,7.65,2.63,12.79,1A63,63,0,0,1,464,190.5c13,0,18.55,4.59,18.55,15.34v5.82l-.7-.16c-7-1.66-12.56-2.83-20.88-2.83-35.68,0-38.45,23.2-38.45,30.31,0,15.84,10.35,32.76,39.39,32.76,22.68,0,36.08-7.89,39.64-10.32,3.26-2.16,4.3-4.21,4.3-8.43v-46.4c0-25.13-13.89-37.87-41.29-37.87-11.45,0-22.34,2.43-27.61,4.68S428.94,179.3,428.94,184.44Zm53.59,61.66-.26.17c-1.95,1.24-7.88,5-18.67,5-11.19,0-17.61-4.83-17.61-13.25,0-7.7,6.85-12.87,17-12.87a63,63,0,0,1,19.09,3.05l.41.12Z"/><path class="cls-2" d="M403.32,170.78a75.13,75.13,0,0,0-16.14-1.5c-20.82,0-32.77,11.6-32.77,31.82v59a11.66,11.66,0,0,0,11.66,11.65l.22,0h.21a12.09,12.09,0,0,0,12.17-12.3V205.84c0-8.45,3.39-12.66,10.39-12.87a34.73,34.73,0,0,1,8.44.93,29.63,29.63,0,0,0,5.78.77c7.75,0,11.37-6.78,11.37-11.37C414.65,177.19,410.63,172.74,403.32,170.78Z"/><path class="cls-2" d="M210.07,210.15l-15.2-3.1c-8.51-1.89-12.13-4.68-12.13-9.33,0-2.69,1.4-8.95,14.39-8.95a46.58,46.58,0,0,1,18.1,4.34c6.16,3.17,12.51,2.62,16.17-1.42a12.12,12.12,0,0,0,2.87-8.78,10.86,10.86,0,0,0-4-7.63c-6.21-5.14-19.15-8.59-32.21-8.59-23.83,0-39.23,12.48-39.23,31.81,0,18.11,15.29,25.83,28.12,29.11,4.4,1.13,6.6,1.52,9.14,2,1.83.33,3.72.67,6.64,1.32,8.11,1.93,11.73,4.93,11.73,9.71,0,3.48-2,9.31-15.12,9.31-9.11,0-19-2.56-25.09-6.52a13.91,13.91,0,0,0-7.4-2.35,10.61,10.61,0,0,0-8.67,4.53c-3.4,4.46-2.35,11.72,2.23,15.53,4,3.34,15.69,11.12,38.11,11.12,23.76,0,39.72-13.33,39.72-33.17C238.27,224,229.05,214.52,210.07,210.15Z"/><path class="cls-2" d="M694.34,156.82c-6.91,0-12.12,5.38-12.12,12.51V235.6c0,6.78,5.55,12.51,12.12,12.51a12.2,12.2,0,0,0,12.13-12.51V169.33A12.19,12.19,0,0,0,694.34,156.82Z"/><path class="cls-2" d="M694.34,109.53A17,17,0,0,0,677,126.89c0,10,7.63,17.87,17.36,17.87,9.41,0,17.36-8.18,17.36-17.87A17.17,17.17,0,0,0,694.34,109.53Z"/></g></svg>